<?xml version="1.0" encoding="utf-8"?>
<!-- Generator: Adobe Illustrator 16.0.0, SVG Export Plug-In . SVG Version: 6.00 Build 0)  -->
<!DOCTYPE svg PUBLIC "-//W3C//DTD SVG 1.1//EN" "http://www.w3.org/Graphics/SVG/1.1/DTD/svg11.dtd">
<svg version="1.1" id="Layer_1" xmlns="http://www.w3.org/2000/svg" xmlns:xlink="http://www.w3.org/1999/xlink" x="0px" y="0px"
	 width="332px" height="156px" viewBox="0 0 332 156" enable-background="new 0 0 332 156" xml:space="preserve">
<g>
	<path fill="#ED1165" d="M165.5,152h-0.158h-0.121c-0.171,0-0.295,0.087-0.414,0.085l-0.245,0.041
		c-11.319,0-13.234-3.739-13.532-5.36l-0.096-0.507l0.121-0.509c0.029-0.125,2.926-12.656,2.428-27.707
		c-0.372-11.243-13.078-14.308-17.253-15.315c-0.572-0.138-0.95-0.229-1.25-0.328l-0.502-0.162l-0.291-0.19
		c-7.111-4.665-12.116-11.597-14.875-20.606c-2.998-9.788-3.649-20.282-1.989-32.08c1.622-11.531,6.334-21.958,14.005-30.992
		c2.973-3.503,6.878-6.367,12.29-9.361C149.818,5.578,157.036,4,165.069,4h0.305h0.28c8.021,0,15.229,1.578,21.429,5.008
		c5.389,2.981,9.289,5.926,12.273,9.442c7.67,9.033,12.383,19.421,14.004,30.952c1.661,11.797,1.01,22.271-1.987,32.06
		c-2.76,9.01-7.764,15.932-14.874,20.596l-0.286,0.184l-0.505,0.162c-0.303,0.1-0.68,0.189-1.253,0.327
		c-16.879,4.074-17.158,12.537-17.25,15.317c-0.497,15.051,2.402,27.584,2.432,27.708l0.12,0.511l-0.094,0.517
		c-0.293,1.621-2.2,5.39-13.524,5.39l-0.236-0.087C165.789,152.087,165.668,152,165.5,152z M165.341,147h0.158
		c0.127,0,0.218,0.067,0.305,0.065c0.106-0.002,0.207,0.031,0.335,0.031c5.379,0,7.546-0.894,8.332-1.396
		c-0.737-3.572-2.739-14.643-2.305-27.83c0.331-10.004,7.433-16.746,21.106-20.047c0.262-0.063,0.575-0.137,0.744-0.183
		c5.951-4.001,10.168-9.945,12.536-17.677c2.777-9.07,3.372-18.85,1.816-29.902c-1.508-10.72-5.713-20.019-12.856-28.431
		c-2.577-3.037-6.031-5.557-10.869-8.234C179.123,10.344,172.912,9,165.654,9h-0.28h-0.305c-7.17,0-13.566,1.386-19.01,4.398
		c-4.862,2.689-8.322,5.28-10.889,8.303c-7.143,8.411-11.348,17.677-12.856,28.396c-1.555,11.052-0.96,20.816,1.817,29.886
		c2.368,7.731,6.585,13.669,12.538,17.67c0.164,0.044,0.48,0.116,0.744,0.18c13.676,3.301,20.778,10.044,21.108,20.049
		c0.436,13.186-1.563,24.262-2.3,27.835c0.787,0.503,2.958,1.415,8.34,1.415c0.127,0,0.23-0.068,0.339-0.066
		c0.091,0.002,0.187-0.065,0.319-0.065H165.341z"/>
</g>
<g>
	<rect x="136" y="98" fill="#ED1165" width="59" height="5"/>
</g>
<g>
	<g>
		<path fill="#ED1165" d="M130.967,77.873c1.765,5.762,4.625,10.081,8.723,13.152l51.305-0.005
			c4.097-3.071,6.957-7.395,8.723-13.158c2.148-7.017,2.814-14.594,2.017-23.045c-2.577-0.182-5.449,0.787-7.851,3.512
			c-16.867,17.186-28.056,1.114-28.056,1.114s-9.817-9.925-24.644-8.742c-5.073,0.401-9.117,2.195-12.253,4.363
			C128.167,63.421,128.837,70.917,130.967,77.873z"/>
	</g>
</g>
<g>
	<g>
		<g>
			<path fill="#ED1165" d="M237.402,85.442c0,1.415,0.036,4.21,0.145,5.227h-7.731c0.182-1.743,0.254-6.389,0.254-8.748v-8.022
				c0-2.323-0.072-7.005-0.254-8.748c1.308,0,6.823-0.182,8.676-0.182c7.621,0,11.506,3.375,11.506,8.53
				c0,5.481-3.594,9.691-11.688,9.691h-0.907V85.442z M238.999,70.523c-0.58,0-0.871,0-1.706,0.073v7.296
				c0.435,0.073,0.799,0.073,1.161,0.073c2.795,0,4.573-1.234,4.573-3.739C243.027,71.793,241.649,70.523,238.999,70.523z"/>
		</g>
		<g>
			<path fill="#ED1165" d="M252.027,78.581c0-8.094,5.372-14.047,13.394-14.047c7.659,0,12.704,5.626,12.704,12.741
				c0,8.094-5.408,14.046-13.394,14.046C257.072,91.321,252.027,85.659,252.027,78.581z M271.048,78.037
				c0-4.863-2.469-7.84-5.918-7.84c-3.665,0-6.062,3.448-6.062,7.623c0,4.863,2.505,7.84,5.953,7.84
				C268.688,85.659,271.048,82.212,271.048,78.037z"/>
		</g>
		<g>
			<path fill="#ED1165" d="M280.925,81.921l0.073-8.203c0-2.323-0.036-6.824-0.219-8.566l5.3-0.363l11.725,14.374v-5.263
				c0-2.323-0.073-7.005-0.291-8.748c1.452,0,6.136-0.037,7.369-0.182c-0.145,1.052-0.182,3.957-0.182,5.372v15.137
				c0,1.415-0.072,4.283,0.073,5.299l-5.155,0.363l-11.832-14.447v8.749c0,1.378,0.036,4.21,0.146,5.227h-7.297
				C280.816,88.926,280.925,84.28,280.925,81.921z"/>
		</g>
		<g>
			<path fill="#ED1165" d="M321.076,91.249c-8.457,0-13.647-5.444-13.647-12.812c0-8.022,6.025-13.902,14.337-13.902
				c4.066,0,7.224,1.379,8.93,2.577l-1.742,5.663c-1.416-1.089-4.066-2.286-7.006-2.286c-4.682,0-7.404,3.158-7.404,7.478
				c0,4.973,3.303,7.55,7.078,7.55c1.233,0,2.286-0.146,3.266-0.473v-2.178c0-0.399,0-1.452-0.071-1.996
				c-1.234-0.036-0.763-0.036-2.034-0.036c-1.088,0-2.032,0.036-3.193,0.108c0.108-2.032,0.182-3.629,0.108-5.154
				c2.215,0.108,3.304,0.145,4.938,0.145c2.977,0,4.174-0.037,6.751-0.145c-0.182,1.452-0.254,6.534-0.254,8.929v3.993
				C328.88,89.942,325.868,91.249,321.076,91.249z"/>
		</g>
	</g>
	<g>
		<g>
			<path fill="#ED1165" d="M23.149,85.515c0,1.415,0.036,4.21,0.146,5.227h-7.732c0.182-1.743,0.254-6.389,0.254-8.748v-8.021
				c0-2.323-0.073-7.006-0.254-8.748c1.307,0,6.824-0.182,8.675-0.182c7.623,0,11.506,3.376,11.506,8.53
				c0,5.481-3.593,9.691-11.688,9.691h-0.908V85.515z M24.746,70.596c-0.581,0-0.871,0-1.706,0.072v7.297
				c0.436,0.072,0.799,0.072,1.162,0.072c2.795,0,4.573-1.234,4.573-3.739C28.775,71.866,27.396,70.596,24.746,70.596z"/>
		</g>
		<g>
			<path fill="#ED1165" d="M38.287,90.741c0.182-1.743,0.254-6.389,0.254-8.748v-8.021c0-2.323-0.073-7.006-0.254-8.748
				c1.416,0,6.534-0.036,7.732-0.182c-0.109,1.053-0.146,3.957-0.146,5.373v15.1c0,1.378,0.036,4.21,0.146,5.227H38.287z"/>
		</g>
		<g>
			<path fill="#ED1165" d="M50.74,81.993l0.072-8.204c0-2.323-0.036-6.824-0.218-8.566l5.299-0.363l11.724,14.375v-5.264
				c0-2.323-0.072-7.006-0.291-8.748c1.452,0,6.135-0.036,7.369-0.182c-0.146,1.053-0.182,3.957-0.182,5.373v15.136
				c0,1.415-0.072,4.282,0.073,5.3l-5.154,0.362L57.6,76.766v8.749c0,1.378,0.037,4.21,0.145,5.227h-7.296
				C50.631,88.998,50.74,84.353,50.74,81.993z"/>
		</g>
		<g>
			<path fill="#ED1165" d="M91.395,91.321c-8.458,0-13.648-5.444-13.648-12.812c0-8.022,6.026-13.902,14.337-13.902
				c4.065,0,7.223,1.379,8.929,2.577l-1.742,5.663c-1.416-1.089-4.065-2.287-7.005-2.287c-4.682,0-7.404,3.158-7.404,7.477
				c0,4.973,3.303,7.55,7.078,7.55c1.234,0,2.287-0.145,3.267-0.473v-2.178c0-0.399,0-1.452-0.073-1.996
				c-1.233-0.036-0.762-0.036-2.033-0.036c-1.089,0-2.032,0.036-3.194,0.108c0.109-2.032,0.182-3.629,0.109-5.153
				c2.214,0.108,3.304,0.145,4.937,0.145c2.976,0,4.174-0.037,6.751-0.145c-0.181,1.451-0.254,6.533-0.254,8.929v3.992
				C99.198,90.015,96.186,91.321,91.395,91.321z"/>
		</g>
	</g>
</g>
<g>
	<rect y="42" fill="none" width="332" height="72"/>
</g>
</svg>
